<svg xmlns="http://www.w3.org/2000/svg" xmlns:xlink="http://www.w3.org/1999/xlink" viewBox="0 0 50.39 50"><defs><style>.cls-1{fill:url(#Sfumatura_senza_nome_4);}</style><linearGradient id="Sfumatura_senza_nome_4" x1="2.91" y1="44.9" x2="37.82" y2="13.73" gradientUnits="userSpaceOnUse"><stop offset="0" stop-color="#007dc4"/><stop offset="0.51" stop-color="#2aa0d1"/><stop offset="1" stop-color="#7ad0e2"/></linearGradient></defs><g id="Livello_2" data-name="Livello 2"><g id="Livello_1-2" data-name="Livello 1"><path class="cls-1" d="M14.79,2.22A25.3,25.3,0,0,1,23.92,0a48.56,48.56,0,0,1,2.82,10A64.79,64.79,0,0,0,14.79,2.22m2.55,15.26A29.61,29.61,0,0,0,13,24.69c-.58-.44-1.15-.87-1.6-1.25A55.86,55.86,0,0,1,7,19.21l1-.29A31,31,0,0,1,17.34,17.48Zm-15-3A25.13,25.13,0,0,1,11,4.35c4.81.83,10,3.56,14.36,6.59a33.93,33.93,0,0,0-3.56,2.26,20.74,20.74,0,0,0-3.51,3.24,28.5,28.5,0,0,0-8.32,1.12c-1.35.38-2.56.71-3.61,1C5,17.15,3.7,15.76,2.34,14.45ZM1,18.11a25.62,25.62,0,0,1,1-2.71c1,.94,2.05,2.06,3.31,3.39A32.7,32.7,0,0,1,1,19.57C.94,19.09.94,18.6,1,18.11Zm0,2.31a42.69,42.69,0,0,0,4.9-.91L7.21,21a43.07,43.07,0,0,0,5.35,4.93,33.46,33.46,0,0,0-1.41,5c-2.11.37-3.9.62-5.18.8L4.29,32A23.5,23.5,0,0,1,1,20.39ZM1.12,32.5A24.48,24.48,0,0,1,0,25.81l.09.45a19.77,19.77,0,0,0,2.32,6Zm3.65.23q3.2-.43,6.2-1a34.94,34.94,0,0,0-.47,6.54v.1a22.5,22.5,0,0,1-5.71-5.68Zm5.62,12.53a25.16,25.16,0,0,1-9-12L2.87,33a22.27,22.27,0,0,0,7.67,7.09c0,2,0,3.76-.13,5.18ZM20.63,16.58a22.76,22.76,0,0,1,6.31-4.49l.13.09a60.84,60.84,0,0,1,.58,6.22,25.66,25.66,0,0,0-7-1.83Zm6.91,10.71c-.07,1.29-.18,2.58-.29,3.87a28.9,28.9,0,0,1-6.05-1.75c2.27-.63,4.38-1.36,6.37-2.12Zm-13-1.5a30.45,30.45,0,0,1,5.13-8.21,22.4,22.4,0,0,1,8,2.2c0,.46,0,.93,0,1.41,0,1.67,0,3.35-.11,5A60.47,60.47,0,0,1,20,28.88,38.64,38.64,0,0,1,14.57,25.79Zm-1.73,4.78c.32-1.11.71-2.3,1.2-3.58a37.42,37.42,0,0,0,4,2.43c-1.8.46-3.55.84-5.16,1.15Zm-1.33,8.48c.08-1.43.12-2.36.12-2.36a34.21,34.21,0,0,1,1-5.23c2.27-.45,4.45-.94,6.53-1.49a28.87,28.87,0,0,0,8,2.53c-.15,1.77-.33,3.54-.49,5.3-.19,2.19-.35,4-.49,5.6-4.46-.49-10.06-1.57-14-3.95ZM25.6,50h-.4A25.22,25.22,0,0,1,11,45.67c.15-1.79.28-3.61.38-5.13A32.82,32.82,0,0,0,24.17,44.1l1.92.1c-.24,2.89-.4,4.72-.49,5.8ZM38,21.92c1.72,1.79,3.84,3.81,5.91,5.69A26,26,0,0,1,40,29.71a29.16,29.16,0,0,0-4.6-6.1C36.26,23.07,37.16,22.51,38,21.92Zm-9.13-3q-.08-3-.38-5.7A68.21,68.21,0,0,1,36,19.82l.88.94c-.81.66-1.66,1.27-2.53,1.85a10.12,10.12,0,0,0-.83-.74A20.34,20.34,0,0,0,28.86,18.92Zm-.13,6.8c.11-1.56.16-3.11.16-4.65v-.65a19.12,19.12,0,0,1,2.85,2c.42.35.81.7,1.19,1.06A44.2,44.2,0,0,1,28.73,25.72Zm-.49,5.57c.16-1.47.3-2.95.41-4.43a56.68,56.68,0,0,0,5.25-2.43,30.35,30.35,0,0,1,4.6,5.85A22.33,22.33,0,0,1,28.24,31.29ZM39.36,45.68A25.29,25.29,0,0,1,26.48,50c.07-1.19.2-3,.43-5.76,4.17.2,10.74.49,12.45,1.47Zm3-2.37a21.84,21.84,0,0,1-1.72,1.44c-2.42-1.16-11.14-1.06-13.12-1.23L27,43.47c.09-1,.2-2.22.32-3.51.24-2.44.53-4.89.8-7.34a24.23,24.23,0,0,0,11.07-1.21,28.19,28.19,0,0,1,3.22,11.91Zm7-11.18A24.82,24.82,0,0,1,42.68,43a20.29,20.29,0,0,0-2.09-12.17,26.59,26.59,0,0,0,4.35-2.3C46.51,29.93,48,31.17,49.37,32.13Zm1-8.16v1a25.12,25.12,0,0,1-.83,6.39c-1-.82-2.41-2-3.88-3.36.58-.39,1.11-.8,1.67-1.23A28.06,28.06,0,0,0,50.39,24ZM37.56,20.18c-1.23-1.24-2-2.06-2-2.06a73.71,73.71,0,0,0-7.08-6.72C32.72,9.71,38,9.05,44.69,10.13A24.15,24.15,0,0,1,37.56,20.18Zm9.1-8.31a24.7,24.7,0,0,1,3.59,10.31,33.91,33.91,0,0,1-5.58,4.92c-2.05-1.92-4.21-4-5.91-5.72A22.79,22.79,0,0,0,46.66,11.87ZM25.76,0A25.26,25.26,0,0,1,44.18,8.52C40.52,7.26,33.15,7.37,28,9.81A50.91,50.91,0,0,0,25.76,0Z"/></g></g></svg>